<svg width="229" height="39" viewBox="0 0 229 39" fill="none" xmlns="http://www.w3.org/2000/svg">
<path d="M27.3156 26.1713C27.3156 26.4179 27.2655 26.6152 27.2655 26.8125C27.0149 28.7853 26.3633 30.7089 25.3108 32.4844C24.2583 34.26 22.8048 35.641 21.0506 36.6274C20.399 36.9233 19.6973 37.17 18.9956 37.4166C18.2939 37.6138 17.5923 37.8111 16.8906 37.9591C16.2891 38.0577 15.7378 38.1564 15.1364 38.2057C14.5349 38.255 13.9836 38.3043 13.4323 38.3043C13.332 38.3043 13.2318 38.3043 13.1315 38.3043C13.0313 38.3043 12.9311 38.3043 12.8308 38.3043C10.5253 38.2057 8.21974 37.7125 5.96432 36.7754C3.75903 35.789 1.75421 34.5559 0 32.9776L4.6612 25.6288C4.71132 25.6781 4.71132 25.6781 4.76144 25.7274C4.76144 25.7274 4.81156 25.7767 4.86168 25.8261C5.9142 26.9605 7.11709 28.0455 8.42022 28.9826C9.72335 29.9197 11.2771 30.4623 12.9812 30.5609C13.0313 30.5609 13.0814 30.5609 13.1315 30.6102C13.1817 30.6102 13.2318 30.6595 13.2819 30.6595C13.332 30.6595 13.3821 30.6595 13.4323 30.7089C13.4824 30.7089 13.5325 30.7582 13.5826 30.7582C13.733 30.7582 13.8833 30.7582 14.0838 30.7089C14.2342 30.7089 14.4347 30.6595 14.585 30.6102C15.1865 30.5116 15.7879 30.265 16.3392 29.9197C16.8906 29.5745 17.3417 29.1799 17.6424 28.6374C17.6925 28.5387 17.7426 28.4894 17.7426 28.3908C17.7927 28.2921 17.8429 28.2428 17.8429 28.1442C17.9431 27.8976 17.9932 27.651 17.9932 27.4043C18.0433 27.1577 18.0433 26.9605 18.0433 26.7632C18.0433 25.7274 17.5923 24.8396 16.6901 24.1491C15.7879 23.4586 14.7855 22.9161 13.733 22.5215C13.2819 22.3736 12.8809 22.2256 12.5301 22.127C12.1291 22.0283 11.7783 21.9297 11.4274 21.8804C11.3773 21.8804 11.3272 21.8804 11.3272 21.831C11.2771 21.831 11.227 21.7817 11.227 21.7817C9.32239 21.3378 7.51806 20.598 5.86408 19.5623C4.21011 18.5265 3.05734 17.0962 2.40578 15.1727C2.30554 14.7781 2.2053 14.3835 2.10506 13.989C2.00482 13.5451 1.95469 13.1505 1.90457 12.6573C1.85445 12.5093 1.85445 12.3614 1.85445 12.2134C1.85445 12.0654 1.85445 11.9175 1.85445 11.7695C1.85445 11.4736 1.85445 11.1777 1.90457 10.8324C1.90457 10.5365 1.95469 10.2406 2.05494 9.8953C2.15518 9.15548 2.35566 8.36634 2.65638 7.62652C2.90698 6.88671 3.25782 6.19621 3.70891 5.55503C4.96192 3.53286 6.56577 2.10254 8.52046 1.21476C10.3749 0.474943 12.4299 0.0310516 14.5349 0.0310516C15.0361 0.0310516 15.5373 0.0803729 16.0886 0.129694C16.5898 0.179015 17.1412 0.277658 17.6925 0.326979C19.0959 0.573585 20.4992 0.918834 21.8525 1.46137C23.2057 2.0039 24.5089 2.64508 25.6616 3.33558L22.4539 10.3885C21.4014 9.6487 20.2988 8.9582 19.146 8.36634C17.9932 7.77449 16.7402 7.52788 15.387 7.52788C15.2867 7.52788 15.2366 7.52788 15.1364 7.52788C15.0361 7.52788 14.986 7.52788 14.8858 7.52788C13.9836 7.62652 13.1817 8.02109 12.3797 8.71159C11.6279 9.40209 11.227 10.0926 11.227 10.8817C11.227 10.9804 11.227 11.1283 11.2771 11.227C11.2771 11.3256 11.3272 11.4736 11.4274 11.5722C11.5277 11.8188 11.6279 12.0654 11.8284 12.312C12.0289 12.5586 12.2294 12.7559 12.48 12.9532C12.9311 13.2985 13.5325 13.5944 14.3344 13.8903C15.1364 14.1863 15.9884 14.4329 16.8906 14.7288C17.6424 14.9261 18.3441 15.1234 19.0457 15.2713C19.7474 15.4193 20.3489 15.6166 20.8 15.7645C22.9551 16.5043 24.6091 17.7867 25.7118 19.5623C26.8144 21.3378 27.3657 23.212 27.4158 25.1849C27.4158 25.2835 27.4158 25.3329 27.4158 25.3329C27.4158 25.3822 27.4158 25.4315 27.4158 25.4315C27.3657 25.6781 27.3657 25.9247 27.3156 26.1713ZM57.3878 29.2292V37.4166H34.6332V0.918834H57.3878V8.90888H44.6071V15.2713H56.636V23.0641H44.6071V29.2292H57.3878ZM95.78 27.7989C94.5772 30.3143 92.8731 32.3858 90.6176 33.9641C88.8133 35.1971 86.8085 36.0356 84.7034 36.4795C82.5483 36.9233 80.3931 37.2193 78.2379 37.3179C77.6365 37.3672 76.9849 37.3672 76.3835 37.3672C75.782 37.3672 75.1806 37.3672 74.6292 37.3672H64.4548V0.869513H75.2808C75.8823 0.869513 76.4336 0.869513 77.035 0.869513C77.6365 0.869513 78.2379 0.869513 78.7892 0.918834C80.8943 1.01748 82.9492 1.3134 85.0042 1.7573C87.0591 2.20119 88.9136 3.03965 90.6176 4.27268C92.7728 5.75232 94.4769 7.72517 95.6798 10.1912C96.8827 12.6573 97.5844 15.1727 97.7347 17.7374C97.7849 17.984 97.7849 18.1813 97.7849 18.4279C97.7849 18.6745 97.7849 18.8718 97.7849 19.1184C97.7849 19.217 97.7849 19.365 97.7849 19.5129C97.7849 19.6609 97.7849 19.7596 97.7849 19.9075C97.6345 22.6695 96.9829 25.2835 95.78 27.7989ZM87.5603 18.7731C87.5603 18.6252 87.5603 18.4772 87.5102 18.3292C87.4099 16.8989 87.0591 15.4686 86.4577 14.1369C85.8562 12.8053 85.0042 11.7202 83.9015 10.8817C83.0996 10.2406 82.1974 9.79666 81.195 9.55005C80.1926 9.30345 79.1902 9.2048 78.1377 9.15548C77.9372 9.15548 77.7367 9.15548 77.5362 9.15548C77.3357 9.15548 77.1353 9.15548 76.9348 9.15548H74.3786V29.2786C74.4789 29.2786 74.6292 29.2786 74.7796 29.3279C74.93 29.3279 75.0302 29.3772 75.1806 29.3772C75.3309 29.3772 75.4813 29.3772 75.5815 29.4265C75.6818 29.4265 75.8321 29.4758 75.9324 29.4758C76.3333 29.4758 76.7343 29.4758 77.1353 29.4265C77.5863 29.4265 77.9873 29.3772 78.3382 29.3279C79.3406 29.2292 80.343 29.0813 81.2953 28.8347C82.2475 28.5881 83.1497 28.1442 83.9015 27.651C85.1545 26.7632 86.0567 25.5795 86.6581 24.0505C87.2596 22.5215 87.5603 20.9433 87.5603 19.3157C87.5603 19.0691 87.5603 18.9211 87.5603 18.7731ZM142.492 20.6967C142.492 21.0912 142.442 21.4858 142.342 21.8804C142.242 22.6695 142.141 23.4586 141.891 24.2478C141.69 25.0369 141.39 25.8261 141.089 26.5659C139.435 30.265 136.929 33.1256 133.471 35.1971C130.012 37.2193 126.404 38.255 122.594 38.255C122.344 38.255 122.043 38.255 121.793 38.2057C121.542 38.2057 121.291 38.1564 120.991 38.1564C119.687 38.0577 118.384 37.8111 117.081 37.4659C115.778 37.1206 114.525 36.6274 113.322 36.0356C110.064 34.3586 107.508 31.9419 105.654 28.8347C103.799 25.7274 102.847 22.4722 102.847 19.1184C102.847 18.6252 102.847 18.132 102.897 17.6387C102.947 17.1455 102.997 16.603 103.148 16.1098C103.348 15.1234 103.599 14.1369 103.95 13.1012C104.301 12.1148 104.701 11.1283 105.253 10.1912C107.057 6.93603 109.513 4.46996 112.721 2.74372C115.878 1.01748 119.236 0.179015 122.695 0.179015C123.146 0.179015 123.647 0.179015 124.098 0.228337C124.599 0.277658 125.05 0.326979 125.501 0.326979C126.955 0.524264 128.358 0.869513 129.762 1.36273C131.165 1.85594 132.518 2.49711 133.821 3.28625C136.578 5.06182 138.733 7.37992 140.237 10.2899C141.74 13.1998 142.492 16.2577 142.492 19.4143C142.492 19.9075 142.492 20.3021 142.492 20.6967ZM132.368 18.6252C132.368 18.3786 132.318 18.1813 132.318 17.9347C132.117 16.3071 131.616 14.7288 130.814 13.1998C130.012 11.6709 128.859 10.4872 127.456 9.6487C127.055 9.45141 126.704 9.30345 126.303 9.15548C125.902 9.00752 125.552 8.85956 125.151 8.76091C124.75 8.66227 124.399 8.61295 123.998 8.56363C123.597 8.51431 123.246 8.46499 122.845 8.46499C120.89 8.46499 119.036 9.05684 117.382 10.2899C115.728 11.5229 114.525 13.1505 113.873 15.1727C113.823 15.2713 113.823 15.3206 113.773 15.4193C113.773 15.5179 113.723 15.5672 113.723 15.6659C113.623 16.0111 113.523 16.3564 113.422 16.7016C113.322 17.0469 113.272 17.4415 113.172 17.836C113.122 18.0826 113.122 18.3786 113.072 18.6252C113.072 18.8718 113.021 19.1184 113.021 19.4143C113.021 19.5623 113.021 19.7102 113.021 19.8582C113.021 20.0062 113.021 20.1541 113.072 20.3021C113.172 22.3243 113.823 24.2478 114.976 26.0727C116.129 27.8976 117.683 29.0813 119.738 29.6731C119.988 29.7718 120.189 29.8211 120.439 29.8704C120.69 29.9197 120.94 29.969 121.191 30.0184C121.442 30.0677 121.642 30.0677 121.893 30.117C122.143 30.117 122.344 30.1663 122.594 30.1663C124.649 30.1663 126.504 29.5745 128.158 28.3414C129.812 27.1577 131.015 25.5301 131.716 23.508C131.817 23.1134 131.917 22.7188 132.017 22.3243C132.117 21.8804 132.167 21.4858 132.218 21.0419C132.268 20.7953 132.268 20.4994 132.318 20.2528C132.318 20.0062 132.368 19.7596 132.368 19.5129C132.368 19.1184 132.368 18.8718 132.368 18.6252ZM176.223 37.4166L162.139 18.5758C161.738 18.1319 161.388 17.5894 161.037 16.9482C160.686 16.3071 160.335 15.6659 160.034 14.9754C159.784 14.4822 159.583 13.989 159.383 13.4958C159.182 13.0025 158.982 12.5586 158.781 12.1641C158.982 13.3478 159.132 14.5315 159.232 15.7645C159.333 16.9976 159.383 18.2306 159.383 19.4143V37.4166H149.609V0.918834H159.383L173.366 19.6609C173.717 20.2034 174.068 20.746 174.369 21.3378C174.72 21.9297 175.02 22.5215 175.321 23.1627C175.572 23.6559 175.772 24.1491 176.023 24.6424C176.273 25.1356 176.474 25.6288 176.724 26.0727C176.674 25.6288 176.624 25.2342 176.574 24.889C176.524 24.4944 176.474 24.0998 176.424 23.7053C176.323 22.9654 176.273 22.1763 176.273 21.3378C176.223 20.5487 176.223 19.7102 176.223 18.8718V0.968155H185.947V37.4659H176.223V37.4166ZM218.876 37.4166L217.021 30.8568H202.687L200.782 37.4659H190.758L203.489 0.968155H216.119L229 37.4659H218.876V37.4166ZM211.107 11.7202C210.907 11.1283 210.706 10.5365 210.556 9.8953C210.405 9.25413 210.255 8.66227 210.105 8.02109C210.004 7.77449 209.954 7.5772 209.954 7.37992C209.904 7.18263 209.854 6.98535 209.854 6.78806C209.804 6.98535 209.754 7.18263 209.704 7.37992C209.654 7.5772 209.603 7.82381 209.553 8.02109C209.503 8.11974 209.503 8.16906 209.503 8.21838C209.503 8.2677 209.503 8.36634 209.453 8.41566C209.353 9.00752 209.202 9.55005 209.052 10.0926C208.902 10.6351 208.751 11.1777 208.601 11.7202L204.842 23.8039H214.916L211.107 11.7202Z" fill="white"/>
</svg>
